<svg xmlns="http://www.w3.org/2000/svg" width="585" height="581" viewBox="0 0 585 581">
  <g fill-rule="evenodd" clip-rule="evenodd">
    <path d="M1 386c2-3 1.8-6.8 2.8-10.2 1.5-5 3.2-9.8 6-14 5.4-8 12.8-11.5 22.3-10.6l116 10.6c6 .6 10 0 14-4.3 4-4 9-7 13-10.8 2-1.6 3-2 5 .2l37 43c2 1 2 3 1 4-4 5-8 11-14 15-7 5-14 7-23 6-52-5-103-13-154-20l-24-3v-8zM67 1.8h8c3 .4 6 1.5 8.4 3.2 48.8 33.7 99 65 148.5 97.4 11 7.5 22 15.5 34 22 13 7.6 19 19.2 20 33.3 3 25.8 0 51.2-5 76.5-5 24.8-12 49-22 72.4-2 3 0 4.7 1 6.6 23.2 30.8 47 61.4 69.6 92.5 38 51.5 75.5 103.3 113 155 2 2.5 2 4-.3 6-5 4.4-10 8.4-16 11.2-14.7 6-27 3-36.7-9-27-36-54-70-81-106-23.3-31-51-59-76.6-88l-45-50-4-4c-8-7-10.7-15-9-25 4.4-33 9.3-65 13-98 2-15 2.8-30 3.7-44 .2-5 .6-10 1.2-14 .5-6-1.5-12-5.7-16-5-6-11.6-10-18-14-36-22-72-47-109-71-7-5-10.7-12-9-20 2-9 7-16 16-18zm518.5 533c-.2 26.2-21.7 47.2-48 47-26 0-47.8-22-47.3-48 .5-26.5 21.8-47.5 48-47.3 26.5.2 47.5 21.6 47.3 48.2zm-221-451.3c-.8 17-6.7 32.5-19.2 45.4-7 7-14.4 13-22.5 18-10.4 7-21 3-23.4-9-2.6-13-9-23-20.8-29-7-4-6.7-4-3-11L296 59c6-11.8 17.7-18.2 31-16 16.8 2.7 36.5 18 37.5 40.5z"/>
    <path d="M167 239.5l-5 46c-.2 1.7-1 2.5-2.4 3.3-5.8 3.7-11.4 7.6-17.4 10.8-7.5 4-15.6 5-23.2.2-6.4-4-10-10.2-9.5-18 .3-6.5 3.8-11.3 8.4-15.4 9-8.5 21-13.2 33-19 5-2.8 10-5 16-8z"/>
  </g>
</svg>
